# xmcd CD database file
#
# Track frame offsets:
#	150
#	19670
#	39150
#	53704
#	82039
#	107945
#	128826
#	147940
#	175137
#	198936
#	227436
#
# Disc length: 3373 seconds
#
# Revision: 2
# Processed by: cddbd v1.5.2PL0 Copyright (c) Steve Scherf et al.
# Submitted via: CDex 1.70beta2
#
DISCID=880d2b0b
DTITLE=Robben Ford - Truth
DYEAR=2007
DGENRE=Blues
TTITLE0=Lateral Climb
TTITLE1=How Deep In The Blues (Do You Want To Go)
TTITLE2=Nobody's Fault But Mine
TTITLE3=Riley B. King
TTITLE4=You're Gonna Need A Friend
TTITLE5=One Man's Ceiling Is Another Man's Floor
TTITLE6=Too Much
TTITLE7=Peace On My Mind
TTITLE8=There'll Never Be Another You
TTITLE9=River Of Soul
TTITLE10=Moonchild Blues
EXTD=YEAR: 2007
EXTT0=
EXTT1=
EXTT2=
EXTT3=
EXTT4=
EXTT5=
EXTT6=
EXTT7=
EXTT8=
EXTT9=
EXTT10=
PLAYORDER=
